<svg id="Layer_1" data-name="Layer 1" xmlns="http://www.w3.org/2000/svg" viewBox="0 0 2000 2000"><defs><style>.cls-1{fill:#fff;}.cls-2,.cls-3,.cls-5,.cls-7{fill:#333652;}.cls-3,.cls-4{fill-rule:evenodd;}.cls-4{fill:#e7625f;}.cls-5{isolation:isolate;font-size:210.25px;font-family:Helvetica-Bold, Helvetica;}.cls-5,.cls-7{font-weight:700;}.cls-6{letter-spacing:-0.02em;}.cls-7{font-size:102.95px;font-family:Calibri-Bold, Calibri;}.cls-8{letter-spacing:-0.01em;}</style></defs><title>Logo 2021 New Circle</title><path class="cls-1" d="M1000,1999.5c-134.93,0-265.83-26.43-389-78.54a1003.1,1003.1,0,0,1-531.9-531.91C26.93,1265.83.5,1134.93.5,1000S26.93,734.17,79.05,611A1003,1003,0,0,1,611,79.05C734.17,26.93,865.07.5,1000,.5s265.83,26.43,389,78.55A1003,1003,0,0,1,1921,611c52.12,123.22,78.55,254.12,78.55,389s-26.43,265.83-78.54,389A1003.1,1003.1,0,0,1,1389.05,1921C1265.83,1973.07,1134.93,1999.5,1000,1999.5Z"/><path d="M1000,1a1006.32,1006.32,0,0,1,201.34,20.3,993.62,993.62,0,0,1,357.21,150.31,1001.84,1001.84,0,0,1,361.94,439.53,993.63,993.63,0,0,1,58.21,187.52,1008.62,1008.62,0,0,1,0,402.68,993.62,993.62,0,0,1-150.31,357.21,1001.84,1001.84,0,0,1-439.53,361.94,993.63,993.63,0,0,1-187.52,58.21,1008.62,1008.62,0,0,1-402.68,0,993.62,993.62,0,0,1-357.21-150.31A1001.84,1001.84,0,0,1,79.51,1388.86,993.63,993.63,0,0,1,21.3,1201.34a1008.62,1008.62,0,0,1,0-402.68A993.62,993.62,0,0,1,171.61,441.45,1001.84,1001.84,0,0,1,611.14,79.51,993.63,993.63,0,0,1,798.66,21.3,1006.32,1006.32,0,0,1,1000,1h0m0-1h0C447.71,0,0,447.71,0,1000H0c0,552.29,447.71,1000,1000,1000h0c552.29,0,1000-447.71,1000-1000h0C2000,447.71,1552.29,0,1000,0Z"/><path class="cls-2" d="M1450.36,317.35l0-24.17-938.92,3.27-.06,286h6.8l1.86-278.38,920.55-1.1.07,14.46-903.22,6.21,3.12,258.8h12l1.75-240.88,886.5,3.19,1.12,237.7h8.14l.27-237.66,12,0,2.13,237.62h22.15l1.83-265.34Zm20.13,938.76L555.93,1248l-.14-12.57,893.53-1,.28-250.13h-5.8L1445,1229l-889.32-7.36-2.52-237.34H539.25l-4.13,237.18-12.88-.11-3-237.07h-8.47l-.51,251.19,24.57,0-.65,38.09,947.7-6.52,1.95-282.73h-15.81Z"/><path class="cls-3" d="M1486.59,700.72,1268,482.1c-45.09-45.09-118.87-45.09-164,0L885.37,700.72c-.58.58-1,1.28-1.57,1.87a69.37,69.37,0,0,0-9.61-1,70.43,70.43,0,0,0-70.31,70.31c0,36.45,28.07,66.22,63.65,69.64.07.13.12.27.2.4l.35-.35a61,61,0,0,0,6.09.63,70.45,70.45,0,0,0,70.32-70.32c0-2-.43-3.94-.6-5.93l222.29-221.74a28.31,28.31,0,0,1,39.6,0L1424.4,762.88a28.32,28.32,0,0,1,0,39.6L1205.78,1021.1a28.29,28.29,0,0,1-39.6,0L1058.35,913.27,996,975.3l108,108c45.09,45.09,118.87,45.09,164,0l218.62-218.62C1531.67,819.56,1531.67,745.81,1486.59,700.72Z"/><path class="cls-4" d="M1131.28,712.37A68.57,68.57,0,0,0,1062,792.89L833.21,1021.11a28.29,28.29,0,0,1-39.6,0L575,802.48a28.29,28.29,0,0,1,0-39.6L793.62,544.26a28.32,28.32,0,0,1,39.61,0L941.06,652.09l62.31-62-108-108C850.31,437,776.54,437,731.45,482.1L512.83,700.72c-45.1,45.09-45.1,118.86,0,163.95l218.62,218.62c45.1,45.08,118.86,45.08,163.95,0L1114,864.67a115.27,115.27,0,0,0,10.4-12.37,67.81,67.81,0,0,0,6.86.7,70.32,70.32,0,1,0,0-140.63Z"/><text class="cls-5" transform="translate(245.37 1497.3)">OC<tspan class="cls-6" x="315.37" y="0">T</tspan><tspan x="440.1" y="0">OSQUARE</tspan></text><text class="cls-7" transform="translate(388.86 1646.39)">SCIENTIFICS AND SU<tspan class="cls-8" x="862.45" y="0">R</tspan><tspan x="919.6" y="0">GICALS</tspan></text></svg>